<?xml version="1.0" encoding="UTF-8" standalone="no"?>
<!-- Created with Inkscape (http://www.inkscape.org/) -->

<svg
   width="210mm"
   height="297mm"
   viewBox="0 0 210 297"
   version="1.1"
   id="svg1"
   xml:space="preserve"
   inkscape:version="1.4.1 (1:1.4.1+202503302257+93de688d07)"
   sodipodi:docname="cylinder.svg"
   inkscape:export-filename="cylinder.png"
   inkscape:export-xdpi="161.83899"
   inkscape:export-ydpi="161.83899"
   xmlns:inkscape="http://www.inkscape.org/namespaces/inkscape"
   xmlns:sodipodi="http://sodipodi.sourceforge.net/DTD/sodipodi-0.dtd"
   xmlns="http://www.w3.org/2000/svg"
   xmlns:svg="http://www.w3.org/2000/svg"><sodipodi:namedview
     id="namedview1"
     pagecolor="#ffffff"
     bordercolor="#000000"
     borderopacity="0.25"
     inkscape:showpageshadow="2"
     inkscape:pageopacity="0.0"
     inkscape:pagecheckerboard="0"
     inkscape:deskcolor="#d1d1d1"
     inkscape:document-units="mm"
     inkscape:zoom="1.4841611"
     inkscape:cx="277.9348"
     inkscape:cy="131.72425"
     inkscape:window-width="1845"
     inkscape:window-height="1016"
     inkscape:window-x="0"
     inkscape:window-y="0"
     inkscape:window-maximized="1"
     inkscape:current-layer="g1"><inkscape:page
       x="0"
       y="0"
       width="210"
       height="297"
       id="page1"
       margin="0"
       bleed="0" /><inkscape:page
       x="220"
       y="0"
       width="159.45557"
       height="29.280558"
       id="page2"
       margin="0"
       bleed="0" /></sodipodi:namedview><defs
     id="defs1"><clipPath
       clipPathUnits="userSpaceOnUse"
       id="clipPath11"><path
         d="m 1950,380 h 540 v 310 h -540 z"
         transform="matrix(1.0642702,0,0,-0.94304928,0,-2.3576232e-5)"
         id="path11" /></clipPath><clipPath
       clipPathUnits="userSpaceOnUse"
       id="clipPath12"><path
         d="m 1950,380 h 540 v 310 h -540 z"
         transform="matrix(0.13333333,0,0,-0.13333333,0,110.66667)"
         id="path12" /></clipPath><clipPath
       clipPathUnits="userSpaceOnUse"
       id="clipPath14"><path
         d="m 1954.77,683.789 516.6,3.512 14.06,-295.192 -523.63,-3.519 z"
         transform="matrix(0.13333333,0,0,-0.13333333,0,110.66667)"
         id="path14" /></clipPath><clipPath
       clipPathUnits="userSpaceOnUse"
       id="clipPath31"><path
         d="m 2390,365 v 21 h 328 v -21 z"
         transform="matrix(0.00301932,0,0,-0.0462963,-7.208575,17.84662)"
         id="path31" /></clipPath><marker
       style="overflow:visible"
       id="ArrowTriangleStylized-5"
       refX="0"
       refY="0"
       orient="auto-start-reverse"
       inkscape:stockid="Stylized triangle arrow"
       markerWidth="1"
       markerHeight="1"
       viewBox="0 0 1 1"
       inkscape:isstock="true"
       inkscape:collect="always"
       preserveAspectRatio="xMidYMid"><path
         transform="scale(0.5)"
         style="fill:context-stroke;fill-rule:evenodd;stroke:context-stroke;stroke-width:1pt"
         d="m 6,0 c -3,1 -7,3 -9,5 0,0 0,-4 2,-5 -2,-1 -2,-5 -2,-5 2,2 6,4 9,5 z"
         id="path6-0" /></marker><marker
       style="overflow:visible"
       id="ArrowTriangleStylized-93"
       refX="0"
       refY="0"
       orient="auto-start-reverse"
       inkscape:stockid="Stylized triangle arrow"
       markerWidth="1"
       markerHeight="1"
       viewBox="0 0 1 1"
       inkscape:isstock="true"
       inkscape:collect="always"
       preserveAspectRatio="xMidYMid"><path
         transform="scale(0.5)"
         style="fill:context-stroke;fill-rule:evenodd;stroke:context-stroke;stroke-width:1pt"
         d="m 6,0 c -3,1 -7,3 -9,5 0,0 0,-4 2,-5 -2,-1 -2,-5 -2,-5 2,2 6,4 9,5 z"
         id="path6-1" /></marker><marker
       style="overflow:visible"
       id="ArrowTriangleStylized-92"
       refX="0"
       refY="0"
       orient="auto-start-reverse"
       inkscape:stockid="Stylized triangle arrow"
       markerWidth="1"
       markerHeight="1"
       viewBox="0 0 1 1"
       inkscape:isstock="true"
       inkscape:collect="always"
       preserveAspectRatio="xMidYMid"><path
         transform="scale(0.5)"
         style="fill:context-stroke;fill-rule:evenodd;stroke:context-stroke;stroke-width:1pt"
         d="m 6,0 c -3,1 -7,3 -9,5 0,0 0,-4 2,-5 -2,-1 -2,-5 -2,-5 2,2 6,4 9,5 z"
         id="path6-28" /></marker><marker
       style="overflow:visible"
       id="ArrowTriangleStylized-93-7"
       refX="0"
       refY="0"
       orient="auto-start-reverse"
       inkscape:stockid="Stylized triangle arrow"
       markerWidth="1"
       markerHeight="1"
       viewBox="0 0 1 1"
       inkscape:isstock="true"
       inkscape:collect="always"
       preserveAspectRatio="xMidYMid"><path
         transform="scale(0.5)"
         style="fill:context-stroke;fill-rule:evenodd;stroke:context-stroke;stroke-width:1pt"
         d="m 6,0 c -3,1 -7,3 -9,5 0,0 0,-4 2,-5 -2,-1 -2,-5 -2,-5 2,2 6,4 9,5 z"
         id="path6-1-3" /></marker><marker
       style="overflow:visible"
       id="ArrowTriangleStylized-92-6"
       refX="0"
       refY="0"
       orient="auto-start-reverse"
       inkscape:stockid="Stylized triangle arrow"
       markerWidth="1"
       markerHeight="1"
       viewBox="0 0 1 1"
       inkscape:isstock="true"
       inkscape:collect="always"
       preserveAspectRatio="xMidYMid"><path
         transform="scale(0.5)"
         style="fill:context-stroke;fill-rule:evenodd;stroke:context-stroke;stroke-width:1pt"
         d="m 6,0 c -3,1 -7,3 -9,5 0,0 0,-4 2,-5 -2,-1 -2,-5 -2,-5 2,2 6,4 9,5 z"
         id="path6-28-1" /></marker><marker
       style="overflow:visible"
       id="ArrowTriangleStylized-5-7"
       refX="0"
       refY="0"
       orient="auto-start-reverse"
       inkscape:stockid="Stylized triangle arrow"
       markerWidth="1"
       markerHeight="1"
       viewBox="0 0 1 1"
       inkscape:isstock="true"
       inkscape:collect="always"
       preserveAspectRatio="xMidYMid"><path
         transform="scale(0.5)"
         style="fill:context-stroke;fill-rule:evenodd;stroke:context-stroke;stroke-width:1pt"
         d="m 6,0 c -3,1 -7,3 -9,5 0,0 0,-4 2,-5 -2,-1 -2,-5 -2,-5 2,2 6,4 9,5 z"
         id="path6-0-8" /></marker></defs><g
     inkscape:label="Layer 1"
     inkscape:groupmode="layer"
     id="layer1" /><g
     id="g1"
     inkscape:groupmode="layer"
     inkscape:label="1"
     transform="matrix(0.26458333,0,0,0.26458335,220.00001,0)"><path
       id="path4"
       d="m -723.86606,136.12751 h 536.72932 V 95.04884 h -536.72932 z"
       style="fill:none;stroke:#000000;stroke-width:1.07855;stroke-linecap:butt;stroke-linejoin:miter;stroke-miterlimit:4;stroke-dasharray:none;stroke-opacity:1" /><path
       id="path5"
       d="m -438.9914,137.93431 c 0,11.9 -8.912,21.56253 -19.90666,21.56253 -10.99467,0 -19.90534,-9.66253 -19.90534,-21.56253 0,-11.912 8.91067,-21.56827 19.90534,-21.56827 10.99466,0 19.90666,9.65627 19.90666,21.56827 z"
       style="fill:#ffffff;fill-opacity:1;fill-rule:nonzero;stroke:none;stroke-width:0.133333" /><path
       id="path6"
       d="m -438.9959,137.93446 c 0,11.89995 -8.90636,21.55713 -19.90291,21.55713 -10.99404,0 -19.90544,-9.65718 -19.90544,-21.55713 0,-11.91205 8.9114,-21.56824 19.90544,-21.56824 10.99655,0 19.90291,9.65619 19.90291,21.56824 z"
       style="fill:none;stroke:#000000;stroke-width:1.01077;stroke-linecap:butt;stroke-linejoin:miter;stroke-miterlimit:4;stroke-dasharray:none;stroke-opacity:1" /><path
       id="path7"
       d="m -483.93406,182.3713 h 70.24013 v -45.7292 h -70.24013 z"
       style="fill:#ffffff;fill-opacity:1;fill-rule:evenodd;stroke:none;stroke-width:0.133333" /><path
       id="path8"
       d="m -459.0274,117.90204 0.0147,18.69893"
       style="fill:none;stroke:#000000;stroke-width:0.674132;stroke-linecap:butt;stroke-linejoin:miter;stroke-miterlimit:3.2;stroke-dasharray:none;stroke-opacity:1" /><path
       id="path9"
       d="m -460.65273,121.42857 1.62,-4.42653 1.62933,4.42653 c -0.95733,-0.70773 -2.27066,-0.70773 -3.24933,0 z"
       style="fill:#000000;fill-opacity:1;fill-rule:evenodd;stroke:none;stroke-width:0.133333" /><path
       id="path10"
       d="m -457.38206,133.07444 -1.62534,4.4224 -1.63466,-4.4224 c 0.968,0.7036 2.28133,0.7036 3.26,0 z"
       style="fill:#000000;fill-opacity:1;fill-rule:evenodd;stroke:none;stroke-width:0.133333" /><g
       id="g14"
       clip-path="url(#clipPath14)"
       transform="matrix(0.8324623,0,0,1.049249,-704.33064,74.045768)"
       style="fill:none;stroke:#000080;stroke-width:1.80769;stroke-dasharray:none;stroke-opacity:1"><g
         clip-path="url(#clipPath12)"
         id="g13"
         style="fill:none;stroke:#000080;stroke-width:1.80769;stroke-dasharray:none;stroke-opacity:1"><path
           d="m 2541.74,-346.457 c 0,84.241 -84.44,152.546 -188.62,152.546 -104.23,0 -188.66,-68.305 -188.66,-152.546 0,-84.252 84.43,-152.549 188.66,-152.549 104.18,0 188.62,68.297 188.62,152.549 z"
           style="fill:none;stroke:#000080;stroke-width:13.5824;stroke-linecap:butt;stroke-linejoin:miter;stroke-miterlimit:4;stroke-dasharray:none;stroke-dashoffset:0;stroke-opacity:1"
           transform="matrix(0.12528147,0,0,0.14138533,0,110.66667)"
           clip-path="url(#clipPath11)"
           id="path13" /></g></g><path
       id="path17"
       d="m -603.81939,96.527506 0.0107,37.062534"
       style="fill:none;stroke:#000000;stroke-width:0.908477;stroke-linecap:butt;stroke-linejoin:miter;stroke-miterlimit:3.2;stroke-dasharray:none;stroke-opacity:1" /><path
       id="path18"
       d="m -606.01806,101.27804 2.19333,-5.953067 2.18267,5.953067 c -1.28667,-0.94787 -3.05733,-0.94787 -4.376,0 z"
       style="fill:#000000;fill-opacity:1;fill-rule:evenodd;stroke:none;stroke-width:0.133333" /><path
       id="path19"
       d="m -603.80873,129.95937 -1.81866,-1.8172 1.81866,6.35467 1.81734,-6.35467 z"
       style="fill:#000000;fill-opacity:1;fill-rule:evenodd;stroke:none;stroke-width:0.133333" /><path
       id="path20"
       d="m -603.81406,129.95937 -1.81333,-1.8224 1.81866,6.35987 1.81734,-6.35467 z"
       style="fill:none;stroke:#000000;stroke-width:0.454239;stroke-linecap:butt;stroke-linejoin:miter;stroke-miterlimit:4;stroke-dasharray:none;stroke-opacity:1" /><path
       id="path21"
       d="m -719.13686,148.53271 257.18146,-0.16667"
       style="fill:none;stroke:#000000;stroke-width:0.982389;stroke-linecap:butt;stroke-linejoin:miter;stroke-miterlimit:3.2;stroke-dasharray:none;stroke-opacity:1" /><path
       id="path22"
       d="m -713.99152,150.90777 -6.4428,-2.36413 6.4428,-2.38013 c -1.036,1.4 -1.02134,3.3172 0,4.74426 z"
       style="fill:#000000;fill-opacity:1;fill-rule:evenodd;stroke:none;stroke-width:0.133333" /><path
       id="path23"
       d="m -467.0954,145.99164 6.44267,2.364 -6.43733,2.36933 c 1.02533,-1.3948 1.02,-3.3068 -0.005,-4.73333 z"
       style="fill:#000000;fill-opacity:1;fill-rule:evenodd;stroke:none;stroke-width:0.133333" /><path
       id="path24"
       d="m -457.65806,148.15831 265.01599,-0.16667"
       style="fill:none;stroke:#000000;stroke-width:0.995493;stroke-linecap:butt;stroke-linejoin:miter;stroke-miterlimit:3.2;stroke-dasharray:none;stroke-opacity:1" /><path
       id="path25"
       d="m -452.45006,150.56351 -6.52534,-2.39587 6.52534,-2.3948 c -1.04134,1.41613 -1.036,3.3532 0,4.79067 z"
       style="fill:#000000;fill-opacity:1;fill-rule:evenodd;stroke:none;stroke-width:0.133333" /><path
       id="path26"
       d="m -197.85674,145.59524 6.532,2.3912 -6.532,2.40107 c 1.048,-1.412 1.04267,-3.3496 0,-4.79227 z"
       style="fill:#000000;fill-opacity:1;fill-rule:evenodd;stroke:none;stroke-width:0.133333" /><path
       id="path27"
       d="m -723.30872,137.64737 h 243.96399 v -2.31718 h -243.96399 z"
       style="fill:#ffffff;fill-opacity:1;fill-rule:evenodd;stroke:none;stroke-width:0.133333" /><path
       id="path29"
       d="m -438.9394,139.21404 h 261.412 v -3.63959 h -261.412 z"
       style="fill:#ffffff;fill-opacity:1;fill-rule:evenodd;stroke:none;stroke-width:0.133333" /><path
       id="path49"
       d="m -452.40873,128.24111 v -3.74014 c 0,-0.34266 0,-0.52546 0.31867,-0.56666 0.13466,-0.0265 0.56666,-0.0265 0.864,-0.0265 1.292,0 2.90133,0.0677 2.90133,2.15574 0,1 -0.33867,2.1776 -2.46933,2.1776 z m 3.06267,0.18226 c 1.38533,-0.34373 2.516,-1.224 2.516,-2.35986 0,-1.38547 -1.65067,-2.60934 -3.76,-2.60934 h -4.55734 v 0.4536 h 0.35867 c 1.11467,0 1.136,0.16094 1.136,0.68227 v 7.62027 c 0,0.51986 -0.0213,0.6772 -1.136,0.6772 h -0.35867 v 0.4572 c 0.52,-0.0463 1.56267,-0.0463 2.104,-0.0463 0.568,0 1.61467,0 2.13467,0.0463 v -0.4572 h -0.364 c -1.10933,0 -1.136,-0.15734 -1.136,-0.6772 v -3.652 h 1.65733 c 0.228,0 0.83734,0 1.35867,0.5 0.54667,0.49586 0.54667,0.95306 0.54667,1.92813 0,0.92653 0,1.51453 0.58933,2.0624 0.588,0.51987 1.38533,0.61467 1.812,0.61467 1.136,0 1.38533,-1.1828 1.38533,-1.58907 0,-0.0937 0,-0.24947 -0.18266,-0.24947 -0.156,0 -0.156,0.1344 -0.18134,0.22387 -0.0893,1.0464 -0.58933,1.29587 -0.948,1.29587 -0.704,0 -0.81866,-0.74947 -1.02133,-2.088 l -0.208,-1.15574 c -0.24533,-0.93333 -0.948,-1.4068 -1.74533,-1.6776 z"
       style="fill:#000000;fill-opacity:1;fill-rule:nonzero;stroke:none;stroke-width:0.133333" /><path
       id="path50"
       d="m -607.97539,153.10617 v -0.14106 l -0.005,-0.0109 v -0.0521 l -0.005,-0.0199 v -0.0161 l -0.005,-0.0161 v -0.0156 l -0.0107,-0.0145 -0.016,-0.0323 -0.009,-0.005 -0.005,-0.009 -0.0107,-0.0109 -0.016,-0.005 -0.0107,-0.005 h -0.005 l -0.009,-0.005 h -0.005 l -0.005,-0.005 h -0.0213 l -0.005,-0.006 h -0.0413 l -0.0107,-0.005 h -0.13067 c -0.89466,0.92293 -2.156,0.92293 -2.61333,0.92293 v 0.44214 c 0.28533,0 1.12933,0 1.87467,-0.3744 v 7.452 c 0,0.52133 -0.0373,0.688 -1.33334,0.688 h -0.45866 v 0.448 c 0.50533,-0.0469 1.75466,-0.0469 2.328,-0.0469 0.57866,0 1.82266,0 2.328,0.0469 v -0.448 h -0.45867 c -1.29067,0 -1.33733,-0.15627 -1.33733,-0.688 z"
       style="fill:#000000;fill-opacity:1;fill-rule:evenodd;stroke:none;stroke-width:0.133333" /><path
       id="path51"
       d="m -603.17406,161.19937 1.52667,-1.47853 c 2.244,-1.98547 3.10933,-2.76147 3.10933,-4.19854 0,-1.64013 -1.29733,-2.79213 -3.052,-2.79213 -1.62533,0 -2.69333,1.32813 -2.69333,2.6052 0,0.8068 0.724,0.8068 0.76533,0.8068 0.24533,0 0.75067,-0.17187 0.75067,-0.76 0,-0.38013 -0.26,-0.75613 -0.76534,-0.75613 -0.11466,0 -0.14666,0 -0.188,0.0161 0.33334,-0.93187 1.10934,-1.46413 1.94267,-1.46413 1.308,0 1.932,1.16666 1.932,2.34426 0,1.15054 -0.724,2.28654 -1.51067,3.17707 l -2.76533,3.07867 c -0.16133,0.15626 -0.16133,0.18706 -0.16133,0.5308 h 5.33866 l 0.40667,-2.5 h -0.36 c -0.0733,0.43226 -0.172,1.0624 -0.31733,1.2812 -0.104,0.10933 -1.052,0.10933 -1.36934,0.10933 z"
       style="fill:#000000;fill-opacity:1;fill-rule:evenodd;stroke:none;stroke-width:0.133333" /><path
       id="path52"
       d="m -591.53806,157.41817 0.12933,-0.0307 0.13067,-0.0376 0.25067,-0.0823 0.23866,-0.0948 0.12,-0.052 0.10934,-0.0573 0.11466,-0.0521 0.10934,-0.0625 0.208,-0.12387 0.1,-0.0683 0.0933,-0.0677 0.088,-0.0735 0.0893,-0.0776 0.0827,-0.0785 0.156,-0.15573 0.068,-0.0828 0.0627,-0.0839 0.0627,-0.0881 0.0573,-0.0895 0.052,-0.0933 0.0827,-0.188 0.032,-0.0932 0.0307,-0.10414 0.0213,-0.0932 0.016,-0.10533 0.009,-0.10413 v -0.1036 c 0,-1.38027 -1.63467,-2.588 -3.74934,-2.588 h -4.516 v 0.44787 h 0.344 c 1.10934,0 1.136,0.15573 1.136,0.67706 v 7.5776 c 0,0.5156 -0.0267,0.67187 -1.136,0.67187 h -0.344 v 0.448 c 0.51067,-0.0469 1.53734,-0.0469 2.09867,-0.0469 0.55733,0 1.57867,0 2.1,0.0469 v -0.448 h -0.344 c -1.10933,0 -1.14133,-0.15627 -1.14133,-0.67187 v -7.6776 c 0,-0.33333 0,-0.5052 0.31866,-0.552 0.14,-0.0251 0.56267,-0.0251 0.85334,-0.0251 1.28666,0 2.90133,0.0573 2.90133,2.14013 0,0.99426 -0.344,2.15573 -2.47333,2.15573 h -1.6 v 0.324 h 1.65733 c 0.228,0 0.83733,0 1.33733,0.48373 0.548,0.5204 0.548,0.96827 0.548,1.9272 0,0.93694 0,1.5104 0.588,2.0572 0.588,0.52134 1.38,0.60374 1.812,0.60374 1.12534,0 1.36534,-1.1772 1.36534,-1.5824 0,-0.0895 0,-0.2452 -0.18267,-0.2452 -0.156,0 -0.156,0.13013 -0.17733,0.22906 -0.088,1.02667 -0.588,1.28134 -0.948,1.28134 -0.70267,0 -0.81734,-0.7344 -1.02534,-2.06774 l -0.18266,-1.15106 c -0.25467,-0.9172 -0.964,-1.40107 -1.75467,-1.67187 z"
       style="fill:#000000;fill-opacity:1;fill-rule:evenodd;stroke:none;stroke-width:0.133333" /><path
       id="path53"
       d="m -351.19407,151.12604 v -0.1344 l -0.005,-0.0161 v -0.0521 l -0.005,-0.0156 v -0.0203 l -0.005,-0.0163 v -0.0104 l -0.005,-0.0161 -0.0107,-0.0104 -0.016,-0.0307 -0.009,-0.005 -0.0107,-0.0109 -0.016,-0.005 -0.0107,-0.004 -0.005,-0.005 h -0.0147 l -0.005,-0.005 -0.0107,-0.006 h -0.0267 l -0.009,-0.005 h -0.0893 l -0.016,-0.005 h -0.0573 c -0.89067,0.92133 -2.156,0.92133 -2.61333,0.92133 v 0.448 c 0.29066,0 1.13466,0 1.88,-0.37453 v 7.43693 c 0,0.52133 -0.0427,0.69373 -1.33334,0.69373 h -0.464 v 0.4428 c 0.50534,-0.0469 1.75467,-0.0469 2.328,-0.0469 0.57867,0 1.82267,0 2.328,0.0469 v -0.4428 h -0.45866 c -1.29067,0 -1.33734,-0.15613 -1.33734,-0.69373 z"
       style="fill:#000000;fill-opacity:1;fill-rule:evenodd;stroke:none;stroke-width:0.133333" /><path
       id="path54"
       d="m -343.7834,155.12084 0.0933,-0.0521 0.1,-0.0464 0.088,-0.0572 0.088,-0.0521 0.17734,-0.11453 0.084,-0.0573 0.156,-0.11506 0.0787,-0.0677 0.0667,-0.0573 0.0733,-0.0667 0.068,-0.0631 0.12534,-0.13587 0.0573,-0.0677 0.0573,-0.0724 0.052,-0.0729 0.052,-0.0681 0.0467,-0.0772 0.0413,-0.0733 0.0733,-0.15627 0.0627,-0.15573 0.0253,-0.0839 0.0213,-0.0776 0.02,-0.0891 0.0213,-0.16666 0.0107,-0.1776 c 0,-1.3224 -1.28133,-2.14533 -2.58933,-2.14533 l -0.009,0.35986 c 1.04667,0 1.968,0.74947 1.968,1.78547 0,0.81866 -0.56266,1.5052 -1.42666,2.01093 l -1.776,-1.14587 c -0.66667,-0.43173 -0.724,-0.92239 -0.724,-1.16666 0,-0.8744 0.93733,-1.48387 1.95866,-1.48387 l 0.009,-0.35986 c -1.432,0 -2.59867,1.06253 -2.59867,2.40159 0,0.25987 0.032,0.9052 0.63067,1.58227 0.16133,0.1724 0.692,0.53227 1.052,0.776 l 0.328,0.2136 1.77066,1.11973 c 0.40134,0.2708 1.07867,0.70414 1.07867,1.57867 0,1.06307 -1.07867,1.812 -2.26133,1.812 -1.23334,0 -2.27067,-0.89067 -2.27067,-2.07707 0,-0.83853 0.464,-1.75626 1.68267,-2.43333 l -0.328,-0.2136 c -0.83334,0.412 -2.068,1.2188 -2.068,2.64693 0,1.51974 1.464,2.47867 2.97466,2.47867 1.61867,0 2.984,-1.19227 2.984,-2.7292 0,-0.51613 -0.156,-1.16667 -0.70266,-1.7656 -0.27734,-0.30267 -0.50534,-0.448 -1.42267,-1.02133 z"
       style="fill:#000000;fill-opacity:1;fill-rule:evenodd;stroke:none;stroke-width:0.133333" /><path
       id="path55"
       d="m -334.77807,155.4395 0.13067,-0.0375 0.124,-0.036 0.13067,-0.0359 0.12533,-0.048 0.24,-0.0932 0.228,-0.10413 0.10933,-0.0573 0.10934,-0.0624 0.20933,-0.1256 0.0987,-0.0667 0.0933,-0.0683 0.0947,-0.0728 0.088,-0.0735 0.0787,-0.0776 0.0827,-0.0787 0.0733,-0.0823 0.13467,-0.16667 0.0573,-0.0896 0.0573,-0.0828 0.052,-0.0932 0.0467,-0.0948 0.0373,-0.0933 0.0307,-0.0932 0.032,-0.1052 0.02,-0.0989 0.016,-0.0984 0.0107,-0.10427 v -0.10413 c 0,-1.3744 -1.636,-2.58387 -3.74533,-2.58387 h -4.51067 v 0.448 h 0.344 c 1.10933,0 1.136,0.152 1.136,0.6724 v 7.5676 c 0,0.52147 -0.0267,0.6776 -1.136,0.6776 h -0.344 v 0.4428 c 0.516,-0.0469 1.53733,-0.0469 2.09467,-0.0469 0.56266,0 1.58266,0 2.09866,0.0469 v -0.4428 h -0.344 c -1.104,0 -1.13466,-0.15613 -1.13466,-0.6776 v -7.66666 c 0,-0.33334 0,-0.5052 0.312,-0.54627 0.14533,-0.0271 0.568,-0.0271 0.85466,-0.0271 1.28534,0 2.9,0.0572 2.9,2.13587 0,0.9948 -0.348,2.15626 -2.47333,2.15626 h -1.59333 v 0.3172 h 1.65066 c 0.22934,0 0.83867,0 1.33334,0.48547 0.552,0.52027 0.552,0.96813 0.552,1.92653 0,0.93747 0,1.50574 0.58266,2.052 0.58934,0.52147 1.38134,0.60427 1.81334,0.60427 1.12,0 1.364,-1.1776 1.364,-1.5828 0,-0.0839 0,-0.24013 -0.18667,-0.24013 -0.152,0 -0.152,0.13066 -0.172,0.2296 -0.0893,1.01986 -0.58933,1.27613 -0.948,1.27613 -0.704,0 -0.81867,-0.73493 -1.02133,-2.06827 l -0.18667,-1.14533 c -0.256,-0.9172 -0.964,-1.39587 -1.75067,-1.66667 z"
       style="fill:#000000;fill-opacity:1;fill-rule:evenodd;stroke:none;stroke-width:0.133333" /><path
       id="path56"
       d="m -627.73113,118.94471 1.54107,-1.49587 c 2.24533,-1.99467 3.10533,-2.7708 3.10533,-4.21867 0,-1.65573 -1.29226,-2.812 -3.05733,-2.812 -1.636,0 -2.70413,1.33854 -2.70413,2.63067 0,0.79067 0.7296,0.79067 0.776,0.79067 0.24533,0 0.74533,-0.15627 0.74533,-0.7708 0,-0.3584 -0.2704,-0.74374 -0.7704,-0.74374 -0.11507,0 -0.13587,0 -0.1828,0.0197 0.3172,-0.95307 1.11467,-1.47347 1.9532,-1.47347 1.312,0 1.92707,1.1776 1.92707,2.35893 0,1.15734 -0.7032,2.29214 -1.52027,3.1984 l -2.76667,3.0828 c -0.16146,0.15734 -0.16146,0.20414 -0.16146,0.5428 h 5.376 l 0.38546,-2.51626 h -0.33866 c -0.0895,0.4324 -0.1828,1.06826 -0.33854,1.29226 -0.0948,0.11454 -1.0468,0.11454 -1.3604,0.11454 z"
       style="fill:#000000;fill-opacity:1;fill-rule:nonzero;stroke:none;stroke-width:0.133333" /><path
       id="path57"
       d="m -619.09539,114.95417 v -3.74386 c 0,-0.33907 0,-0.52134 0.31733,-0.56814 0.136,-0.0213 0.568,-0.0213 0.86,-0.0213 1.29067,0 2.90533,0.0681 2.90533,2.1572 0,0.9948 -0.344,2.17613 -2.47333,2.17613 z m 3.06266,0.1828 c 1.38,-0.34426 2.51467,-1.2292 2.51467,-2.35893 0,-1.3864 -1.656,-2.6104 -3.76533,-2.6104 h -4.55707 v 0.4532 h 0.36507 c 1.10933,0 1.12933,0.16133 1.12933,0.6828 v 7.61973 c 0,0.52134 -0.02,0.6776 -1.12933,0.6776 h -0.36507 v 0.4532 c 0.52133,-0.0428 1.5624,-0.0428 2.10907,-0.0428 0.568,0 1.60933,0 2.13066,0.0428 v -0.4532 h -0.36 c -1.11466,0 -1.13466,-0.15626 -1.13466,-0.6776 v -3.65053 h 1.656 c 0.224,0 0.83866,0 1.35866,0.4948 0.54267,0.5 0.54267,0.9532 0.54267,1.93173 0,0.92667 0,1.51614 0.59333,2.06254 0.588,0.52026 1.38,0.60933 1.812,0.60933 1.136,0 1.38534,-1.17707 1.38534,-1.58373 0,-0.0933 0,-0.2496 -0.18134,-0.2496 -0.16133,0 -0.16133,0.13493 -0.18266,0.224 -0.0933,1.04173 -0.588,1.29226 -0.95334,1.29226 -0.70266,0 -0.81733,-0.74533 -1.02,-2.08386 l -0.204,-1.15627 c -0.24933,-0.93187 -0.95333,-1.40627 -1.744,-1.67707 z"
       style="fill:#000000;fill-opacity:1;fill-rule:nonzero;stroke:none;stroke-width:0.133333" /><path
       style="fill:none;stroke:#4d4d4d;stroke-width:2.07874;stroke-dasharray:8.31496, 4.15748, 2.07874, 4.15748;stroke-dashoffset:0;stroke-opacity:1"
       d="m -724.55986,95.44216 v 41.10065 h 246.60398"
       id="path62" /><path
       style="fill:none;stroke:#000080;stroke-width:2.07874;stroke-dasharray:none;stroke-opacity:1"
       d="m -725.47186,95.326733 h 539.69883"
       id="path63" /><path
       style="fill:#008080;stroke:#37abc8;stroke-width:2.07874;stroke-dasharray:none;stroke-opacity:1"
       d="M -187.31762,136.53095 V 95.430286"
       id="path62-2" /><path
       style="fill:none;stroke:#4d4d4d;stroke-width:2.07874;stroke-dasharray:8.31496, 4.15748, 2.07874, 4.15748;stroke-dashoffset:0;stroke-opacity:1"
       d="m -437.51456,136.30163 h 250.6466"
       id="path64" /><path
       style="fill:#008080;stroke:#008080;stroke-width:2.07874;stroke-dasharray:none;stroke-opacity:1"
       d="M -724.71246,136.80842 V 95.707757"
       id="path62-2-0" /><text
       xml:space="preserve"
       style="font-size:17.5591px;line-height:1;font-family:Nakula;-inkscape-font-specification:Nakula;text-align:center;writing-mode:lr-tb;direction:ltr;text-anchor:middle;fill:#008066;fill-opacity:0.995169;stroke:none;stroke-width:0.622171;stroke-dasharray:2.48869, 1.24435, 0.622171, 1.24435;stroke-dashoffset:0;stroke-opacity:1"
       x="-755.38818"
       y="121.44584"
       id="text4-2-9"><tspan
         sodipodi:role="line"
         id="tspan4-9-3"
         style="fill:#008066;fill-opacity:0.995169;stroke:none;stroke-width:0.622171"
         x="-755.38818"
         y="121.44584">inlet</tspan></text><path
       style="fill:#008066;fill-opacity:0.995169;stroke:#008066;stroke-width:1.32283;stroke-dasharray:none;stroke-dashoffset:0;stroke-opacity:1;marker-end:url(#ArrowTriangleStylized-5)"
       d="m -719.97698,103.58533 c 11.7958,0 11.7958,0 11.7958,0"
       id="path5-1" /><path
       style="fill:#008066;fill-opacity:0.995169;stroke:#008066;stroke-width:1.32283;stroke-dasharray:none;stroke-dashoffset:0;stroke-opacity:1;marker-end:url(#ArrowTriangleStylized-93)"
       d="m -720.30536,116.12761 c 27.52261,0 27.52261,0 27.52261,0"
       id="path5-7" /><path
       style="fill:#008066;fill-opacity:0.995169;stroke:#008066;stroke-width:1.32283;stroke-dasharray:none;stroke-dashoffset:0;stroke-opacity:1;marker-end:url(#ArrowTriangleStylized-92)"
       d="m -720.35249,128.27418 c 35.00692,0 35.00692,0 35.00692,0"
       id="path5-36" /><path
       style="fill:#008066;fill-opacity:0.995169;stroke:#37abc8;stroke-width:1.32283;stroke-dasharray:none;stroke-dashoffset:0;stroke-opacity:1;marker-end:url(#ArrowTriangleStylized-93-7)"
       d="m -228.33328,114.51814 c 27.52261,0 27.52261,0 27.52261,0"
       id="path5-7-3" /><path
       style="fill:#008066;fill-opacity:0.995169;stroke:#37abc8;stroke-width:1.32283;stroke-dasharray:none;stroke-dashoffset:0;stroke-opacity:1;marker-end:url(#ArrowTriangleStylized-92-6)"
       d="m -234.09764,127.61758 c 35.00692,0 35.00692,0 35.00692,0"
       id="path5-36-1" /><path
       style="fill:#008066;fill-opacity:0.995169;stroke:#37abc8;stroke-width:1.32283;stroke-dasharray:none;stroke-dashoffset:0;stroke-opacity:1;marker-end:url(#ArrowTriangleStylized-5-7)"
       d="m -212.77962,103.17115 c 11.7958,0 11.7958,0 11.7958,0"
       id="path5-1-0" /><text
       xml:space="preserve"
       style="font-size:18.5316px;line-height:1;font-family:Nakula;-inkscape-font-specification:Nakula;text-align:center;writing-mode:lr-tb;direction:ltr;text-anchor:middle;fill:#5fbcd3;fill-opacity:1;stroke:none;stroke-width:0.656629;stroke-dasharray:2.62652, 1.31326, 0.656629, 1.31326;stroke-dashoffset:0;stroke-opacity:1"
       x="-262.2114"
       y="119.07889"
       id="text4-2-9-6"><tspan
         sodipodi:role="line"
         id="tspan4-9-3-1"
         style="fill:#5fbcd3;fill-opacity:1;stroke:none;stroke-width:0.656629"
         x="-262.2114"
         y="119.07889">outlet</tspan></text><text
       xml:space="preserve"
       style="font-size:16.9643px;line-height:1;font-family:Nakula;-inkscape-font-specification:Nakula;text-align:center;writing-mode:lr-tb;direction:ltr;text-anchor:middle;fill:#2c5aa0;fill-opacity:0.995169;stroke:none;stroke-width:0.601096;stroke-dasharray:2.40438, 1.2022, 0.601096, 1.2022;stroke-dashoffset:0;stroke-opacity:1"
       x="-450.79312"
       y="88.678352"
       id="text4-2"><tspan
         sodipodi:role="line"
         id="tspan4-9"
         style="fill:#2c5aa0;fill-opacity:0.995169;stroke:none;stroke-width:0.601096"
         x="-450.79312"
         y="88.678352">no-slip wall</tspan></text><text
       xml:space="preserve"
       style="font-size:16.7103px;line-height:1;font-family:Nakula;-inkscape-font-specification:Nakula;text-align:center;writing-mode:lr-tb;direction:ltr;text-anchor:middle;fill:#6f7c91;fill-opacity:0.995169;stroke:none;stroke-width:0.592094;stroke-dasharray:2.36838, 1.18419, 0.592094, 1.18419;stroke-dashoffset:0;stroke-opacity:1"
       x="-550.92822"
       y="129.96202"
       id="text4"><tspan
         sodipodi:role="line"
         id="tspan4"
         style="fill:#6f7c91;fill-opacity:0.995169;stroke:none;stroke-width:0.592094"
         x="-550.92822"
         y="129.96202">symmetry</tspan></text><text
       xml:space="preserve"
       style="font-size:16.7103px;line-height:1;font-family:Nakula;-inkscape-font-specification:Nakula;text-align:center;writing-mode:lr-tb;direction:ltr;text-anchor:middle;fill:#6f7c91;fill-opacity:0.995169;stroke:none;stroke-width:0.592094;stroke-dasharray:2.36838, 1.18419, 0.592094, 1.18419;stroke-dashoffset:0;stroke-opacity:1"
       x="-362.19635"
       y="128.83463"
       id="text4-6"><tspan
         sodipodi:role="line"
         id="tspan4-93"
         style="fill:#6f7c91;fill-opacity:0.995169;stroke:none;stroke-width:0.592094"
         x="-362.19635"
         y="128.83463">symmetry</tspan></text></g></svg>
